<?xml version="1.0" standalone="no"?>
<!DOCTYPE svg PUBLIC "-//W3C//DTD SVG 20010904//EN"
 "http://www.w3.org/TR/2001/REC-SVG-20010904/DTD/svg10.dtd">
<svg version="1.0" xmlns="http://www.w3.org/2000/svg"
 width="16.000000pt" height="16.000000pt" viewBox="0 0 16.000000 16.000000"
 preserveAspectRatio="xMidYMid meet">
<metadata>
Created by potrace 1.11, written by Peter Selinger 2001-2013
</metadata>
<g transform="translate(0.000000,16.000000) scale(0.004000,-0.004000)"
fill="#000000" stroke="none">
<path d="M0 2000 l0 -2000 2000 0 2000 0 0 439 c0 410 -1 440 -17 445 -10 2
-45 7 -78 11 -227 25 -598 120 -875 225 -278 105 -456 199 -556 292 -124 117
-136 217 -29 258 l30 11 -32 29 c-76 68 -206 43 -253 -49 -42 -84 -11 -185 71
-229 37 -20 53 -23 97 -18 52 6 55 5 99 -33 60 -54 181 -123 317 -184 61 -27
113 -51 115 -53 8 -8 -102 -114 -184 -178 -237 -185 -498 -275 -800 -276 -734
-1 -1323 615 -1291 1350 21 492 298 912 741 1125 295 142 661 162 975 55 307
-106 570 -333 729 -631 152 -284 187 -662 90 -975 -11 -36 -19 -67 -17 -69 2
-2 48 -11 103 -21 135 -24 332 -25 405 -2 76 24 121 70 128 135 5 51 14 63 50
63 20 0 22 -5 22 -55 0 -120 -77 -196 -228 -225 -77 -16 -314 -7 -417 15 -97
20 -99 19 -113 -19 -7 -18 -37 -73 -67 -120 -53 -85 -54 -87 -32 -95 238 -89
406 -142 608 -190 118 -29 353 -71 392 -71 16 0 17 79 17 1520 l0 1520 -2000
0 -2000 0 0 -2000z"/>
<path d="M1980 3147 c3 -3 46 -13 95 -22 439 -81 792 -380 939 -795 15 -42 38
-127 52 -190 l24 -115 -6 100 c-25 405 -286 774 -663 934 -92 39 -255 78 -361
87 -47 3 -83 4 -80 1z"/>
<path d="M1425 2558 c-126 -44 -154 -214 -50 -294 125 -95 306 25 265 176 -15
54 -63 104 -115 119 -47 13 -60 13 -100 -1z"/>
<path d="M2285 2558 c-66 -23 -115 -93 -115 -164 0 -148 191 -220 289 -109 17
19 35 52 42 73 24 80 -33 178 -116 201 -47 13 -60 13 -100 -1z"/>
<path d="M742 1807 c15 -205 93 -395 230 -562 102 -125 264 -244 398 -294 30
-11 47 -15 37 -8 -11 6 -51 33 -91 59 -142 92 -285 238 -381 388 -86 134 -162
325 -180 453 -12 82 -20 59 -13 -36z"/>
<path d="M1403 1731 c-51 -24 -93 -89 -93 -148 0 -60 37 -122 90 -150 52 -28
91 -29 146 -4 105 48 132 173 57 262 -50 59 -124 74 -200 40z"/>
<path d="M2463 1593 c-18 -7 -16 -34 3 -62 20 -27 30 -19 39 32 6 32 5 37 -11
36 -11 0 -25 -3 -31 -6z"/>
</g>
</svg>
