<?xml version="1.0" encoding="utf-8"?>
<!-- Generator: Adobe Illustrator 19.2.1, SVG Export Plug-In . SVG Version: 6.00 Build 0)  -->
<svg version="1.1" id="Layer_1" xmlns="http://www.w3.org/2000/svg" xmlns:xlink="http://www.w3.org/1999/xlink" x="0px" y="0px"
	 viewBox="0 0 313.7 118.6" style="enable-background:new 0 0 313.7 118.6;" xml:space="preserve">
<style type="text/css">
	.st0{fill:#E2E3D3;}
</style>
<path class="st0" d="M48.5,58.1c-0.1,13.2-10.6,21-24.3,24.4C10.4,86,0,81.9,0,66c0-5.2,0-37.8,0-43C0,8.1,9-0.1,23.6,0
	C29,0,34.5,1.2,38.2,4.8c0.1,0,0.2,0,0.4,0c0.3-1.4,0.7-2.8,1-4.2c2.8,0,5.7,0,8.5,0c0,7-0.1,14.1-0.2,21.1
	c-4.3,0.2-8.6,0.5-12.9,0.8c0-0.7,0-1.4,0-2.1c0-7-2.3-12.7-11.2-12.7c-5.8,0.1-11.1,4-11.2,14.5c0,5-0.1,36.3-0.1,41.3
	c0,9.9,4,13.3,11.3,11.6c8.9-2,11.6-7.1,11.6-15c0-1.4,0-2.7,0-4.1c4.3-0.7,8.5-1.3,12.8-1.9C48.5,55.4,48.5,56.8,48.5,58.1z"/>
<path class="st0" d="M244.1,17.8c-1.3-3.7-2.5-7.4-3.8-11.1c-6.2-0.1-12.4-0.2-18.6-0.2c0.1,8.5,0.1,17.2,0.2,25.8
	c4.5,0.2,8.9,0.5,13.4,0.8c1.1-1.8,2.1-3.6,3.2-5.3c1.3,0.1,2.6,0.1,3.8,0.2c0,5,0.1,12.2,0.1,17.2c-1.3-0.1-2.6-0.2-3.8-0.4
	c-1.1-1.9-2.2-3.8-3.3-5.6c-4.5-0.3-8.9-0.7-13.4-0.9c0.1,8.4,0.1,16.9,0.2,25.4c1.8,1.2,3.7,2.4,5.5,3.6c0,1,0,1.9,0,2.9
	c-7.1-0.9-16.4-1.9-23.7-2.5c0-0.9,0-1.8,0-2.8c1.9-0.8,3.7-1.6,5.6-2.4c-0.1-18.7-0.3-37.3-0.4-56c-1.6-1-3.1-2-4.7-3
	c0-0.9,0-1.8,0-2.8c15.1,0,30.2,0,45.4,0.1c0,5.8,0.1,11.5,0.1,17.3C248,18,246.1,17.9,244.1,17.8z"/>
<path class="st0" d="M307.8,22.5c-1.4-4.8-2.8-9.4-4.2-14.1c-3-0.1-6-0.2-9-0.2c0.1,22.3,0.2,44.6,0.3,66.8c1.8,1.6,3.6,3.3,5.4,4.9
	c0,1.3,0,2.7,0,4c-7.1-1.9-16.6-4.1-23.6-5.6c0-1.3,0-2.5,0-3.8c1.8-0.8,3.6-1.6,5.4-2.4c-0.1-21.5-0.2-42.9-0.4-64.4
	c-3.1-0.1-6.2-0.1-9.3-0.2c-1.3,4.2-2.6,8.3-3.9,12.4c-2-0.1-4-0.2-5.9-0.3c0.1-6.3,0.2-12.7,0.4-19c16.8,0,33.6,0.1,50.4,0.1
	c0.2,7.3,0.3,14.7,0.5,22C311.8,22.8,309.8,22.6,307.8,22.5z"/>
<path class="st0" d="M114,57.3c-1.9-4-3.9-7.9-5.8-11.9c-1.3-2.9-3-4.6-6.7-6c8.1-1.7,14.1-6.5,14.1-14.6c0-2.9,0-5.8,0.1-8.6
	c0.1-11.5-10.8-15.4-24.2-15.4c-8.4,0-16.8,0-25.1,0c0,1,0,2,0,3c1.5,0.9,3,1.8,4.6,2.6c-0.2,19.8-0.3,40.1-0.5,59.9
	c-1.8,1.3-3.7,2.6-5.5,3.9c0,1,0,2,0,3c7.2-1.2,16.4-2.5,23.6-3.3c0-1,0-1.9,0-2.9c-1.8-0.8-3.6-1.6-5.4-2.3
	c0-6.4,0.1-16.5,0.2-22.8c7.3-0.6,9.5,0.7,12,5.8c2,4,4,8,6,11.9c2.5,4.9,3.2,9.1,11,8.5c2.7-0.2,6.6-0.8,9.1-1.9c0-1.2,0-2.4,0-3.7
	C117.5,63.3,115.3,59.8,114,57.3z M91.2,35.5c-2.7,0.2-5.3,0.3-7.9,0.5c0.1-10.8,0.1-18.3,0.2-29.2c2.7,0,5.4-0.1,8-0.1
	c8.5-0.1,11.4,3.5,11.3,9.6c0,2.9,0,5.9-0.1,8.8C102.8,31.3,99.5,35,91.2,35.5z"/>
<path class="st0" d="M169.8,65.8c7.4,0.2,14.8,0.5,22.2,0.9c0-1,0-1.9,0-2.9c-1.5-0.8-3-1.5-4.5-2.3c-6.8-20.7-13.5-41-20.2-61.2
	c-4.3,0-8.5,0-12.8,0c-6.3,19.1-13.3,41.6-19.6,61.1c-1.5,0.6-3,1.3-4.5,2c0,1,0,1.9,0,2.9c5.7-0.3,11.4-0.4,17.1-0.5
	c0-1,0-1.9,0-2.9c-1.5-0.5-3-1.1-4.5-1.6c1.4-4.4,2.8-8.7,4.1-13.1c7.6-0.1,15.3-0.1,22.9,0.1c1.4,4.4,2.8,8.8,4.1,13.2
	c-1.5,0.6-3,1.3-4.5,1.9C169.8,64.2,169.8,65,169.8,65.8z M148.8,42.9c3.3-10.5,6.5-20.9,9.7-31.3c0,0,0.1,0,0.1,0
	c3.2,10.4,6.5,20.8,9.7,31.3C161.9,42.8,155.3,42.8,148.8,42.9z"/>
<path class="st0" d="M91.5,92.2h-5.4c-1,0-1.8,0.5-2.1,1.5l-5.3,12.7c-0.4,1-0.9,2.4-1.2,3.3c-0.4-1-0.9-2.5-1.3-3.4l-5.2-12.7
	c-0.4-1-1.1-1.5-2.1-1.5h-5.4c-0.6,0-0.9,0.3-0.9,0.9v1.8c0,0.5,0.4,0.9,0.9,0.9h2.2v19h-2.2c-0.6,0-0.9,0.3-0.9,0.9v1.8
	c0,0.5,0.4,0.9,0.9,0.9h8.1c0.6,0,0.9-0.4,0.9-0.9v-1.8c0-0.5-0.4-0.9-0.9-0.9h-1.9V100l5.8,14.5c0.3,0.9,1,1.4,2,1.4
	c1,0,1.7-0.5,2-1.4l5.8-14.4v14.7h-1.9c-0.5,0-0.9,0.4-0.9,0.9v1.8c0,0.5,0.4,0.9,0.9,0.9h8.1c0.5,0,0.9-0.4,0.9-0.9v-1.8
	c0-0.5-0.4-0.9-0.9-0.9h-2.2v-19h2.2c0.5,0,0.9-0.4,0.9-0.9v-1.8C92.4,92.5,92,92.2,91.5,92.2z"/>
<path class="st0" d="M118.2,92.2h-8c-0.5,0-0.9,0.4-0.9,0.9v1.8c0,0.5,0.4,0.9,0.9,0.9h1.5l-4.8,8.5l-4.8-8.5h1.5
	c0.5,0,0.9-0.4,0.9-0.9v-1.8c0-0.5-0.4-0.9-0.9-0.9h-7.9c-0.6,0-0.9,0.4-0.9,0.9v1.8c0,0.5,0.4,0.9,0.9,0.9h2.1
	c1.7,2.6,5,8.4,6.4,11c0.4,0.7,0.6,1,0.6,1.1v6.9h-2.2c-0.5,0-0.9,0.4-0.9,0.9v1.8c0,0.5,0.4,0.9,0.9,0.9h8.5c0.5,0,0.9-0.4,0.9-0.9
	v-1.8c0-0.5-0.4-0.9-0.9-0.9H109v-7c0.1-0.2,0.3-0.6,0.8-1.5c1.5-2.7,4.6-8.1,6.2-10.6h2.2c0.5,0,0.9-0.4,0.9-0.9v-1.8
	C119.1,92.6,118.7,92.2,118.2,92.2z"/>
<path class="st0" d="M144.2,103.5c-3.5-0.9-6.6-1.8-6.6-4.2c0-2.1,1.9-3.5,4.7-3.5c4.4,0,5.9,2.7,5.9,3.9v1c0,0.5,0.4,0.9,0.9,0.9
	h2.2c0.5,0,0.9-0.4,0.9-0.9V93c0-0.5-0.4-0.9-0.9-0.9h-2c-0.6,0-0.9,0.4-0.9,0.9l0,0.9c-1.6-1.4-3.7-2-6.5-2c-5.1,0-8.7,3-8.7,7.3
	c0,5.4,5.2,6.8,9.5,7.9c3.3,0.9,6.2,1.7,6.2,3.9c0,2.4-1.9,3.8-5.3,3.8c-5.2,0-7-4.3-7.1-4.8v-0.7c0-0.5-0.4-0.9-0.9-0.9h-2.2
	c-0.5,0-0.9,0.4-0.9,0.9v8.2c0,0.5,0.4,0.9,0.9,0.9h2c0.5,0,0.9-0.4,0.9-0.9l0-2c1.6,1.7,4.2,3.2,7.9,3.2c6.9,0,9.3-3.9,9.3-7.6
	C153.6,106,148.6,104.7,144.2,103.5z"/>
<path class="st0" d="M177.8,92.2h-21.2c-0.5,0-1,0.4-1,0.9V99c0,0.5,0.4,1,1,1h2c0.5,0,1-0.4,1-1v-3.3h5.7v19H163
	c-0.5,0-0.9,0.4-0.9,0.9v1.7c0,0.5,0.4,0.9,0.9,0.9h8.2c0.5,0,1-0.4,1-0.9v-1.7c0-0.5-0.4-0.9-1-0.9h-2v-19h5.6V99
	c0,0.6,0.4,1,0.9,1h2c0.5,0,1-0.4,1-1v-5.9C178.8,92.6,178.4,92.2,177.8,92.2z"/>
<path class="st0" d="M203.3,92.2h-8c-0.5,0-0.9,0.4-0.9,0.9v1.8c0,0.5,0.4,0.9,0.9,0.9h1.5l-4.8,8.5l-4.8-8.5h1.5
	c0.5,0,0.9-0.4,0.9-0.9v-1.8c0-0.5-0.4-0.9-0.9-0.9h-7.9c-0.6,0-0.9,0.4-0.9,0.9v1.8c0,0.5,0.4,0.9,0.9,0.9h2.1
	c1.7,2.6,5,8.5,6.4,11c0.4,0.7,0.5,0.9,0.6,1.1v6.9h-2.2c-0.5,0-0.9,0.4-0.9,0.9v1.8c0,0.5,0.4,0.9,0.9,0.9h8.5
	c0.5,0,0.9-0.4,0.9-0.9v-1.8c0-0.5-0.4-0.9-0.9-0.9h-2.2v-7c0.1-0.2,0.3-0.6,0.8-1.4c1.5-2.7,4.6-8.2,6.3-10.7h2.2
	c0.5,0,0.9-0.4,0.9-0.9v-1.8C204.2,92.6,203.9,92.2,203.3,92.2z"/>
<path class="st0" d="M226.9,110.9H225c-0.6,0-0.9,0.4-0.9,0.9v3h-10.2v-19h2.2c0.5,0,0.9-0.4,0.9-0.9v-1.7c0-0.5-0.4-0.9-0.9-0.9
	h-8.4c-0.6,0-0.9,0.3-0.9,0.9v1.8c0,0.5,0.4,0.9,0.9,0.9h2.2v19h-2.2c-0.6,0-0.9,0.3-0.9,0.9v1.8c0,0.5,0.4,0.9,0.9,0.9h19.2
	c0.5,0,0.9-0.4,0.9-0.9v-5.6C227.8,111.3,227.4,110.9,226.9,110.9z"/>
<path class="st0" d="M248,99.7h1.9c0.5,0,0.9-0.4,0.9-0.9v-5.7c0-0.5-0.4-0.9-0.9-0.9h-18.7c-0.6,0-0.9,0.3-0.9,0.9v1.8
	c0,0.5,0.4,0.9,0.9,0.9h2.2v19h-2.2c-0.6,0-0.9,0.3-0.9,0.9v1.8c0,0.5,0.4,0.9,0.9,0.9h18.7c0.6,0,0.9-0.4,0.9-0.9v-5.7
	c0-0.5-0.4-0.9-0.9-0.9H248c-0.6,0-0.9,0.4-0.9,0.9v3h-9.6v-7.7h8.4c0.6,0,0.9-0.4,0.9-0.9v-1.8c0-0.5-0.4-0.9-0.9-0.9h-8.4v-7.8
	h9.7v3C247.1,99.3,247.4,99.7,248,99.7z"/>
</svg>
